<?xml version="1.0" encoding="UTF-8" standalone="no"?>
<!-- Created with Inkscape (http://www.inkscape.org/) -->

<svg
   width="160"
   height="80"
   viewBox="0 0 42.333332 21.166667"
   version="1.1"
   id="svg1"
   inkscape:version="1.3.2 (091e20e, 2023-11-25, custom)"
   sodipodi:docname="worm_walk.svg"
   xmlns:inkscape="http://www.inkscape.org/namespaces/inkscape"
   xmlns:sodipodi="http://sodipodi.sourceforge.net/DTD/sodipodi-0.dtd"
   xmlns="http://www.w3.org/2000/svg"
   xmlns:svg="http://www.w3.org/2000/svg">
  <sodipodi:namedview
     id="namedview1"
     pagecolor="#ffffff"
     bordercolor="#000000"
     borderopacity="0.25"
     inkscape:showpageshadow="2"
     inkscape:pageopacity="0.0"
     inkscape:pagecheckerboard="0"
     inkscape:deskcolor="#d1d1d1"
     inkscape:document-units="mm"
     showgrid="true"
     inkscape:zoom="8.3597643"
     inkscape:cx="77.573957"
     inkscape:cy="31.161166"
     inkscape:window-width="3440"
     inkscape:window-height="1369"
     inkscape:window-x="-8"
     inkscape:window-y="479"
     inkscape:window-maximized="1"
     inkscape:current-layer="layer1">
    <inkscape:grid
       id="grid1"
       units="px"
       originx="0"
       originy="0"
       spacingx="21.166666"
       spacingy="21.166666"
       empcolor="#0099e5"
       empopacity="0.30196078"
       color="#0099e5"
       opacity="0.14901961"
       empspacing="5"
       dotted="false"
       gridanglex="30"
       gridanglez="30"
       visible="true" />
  </sodipodi:namedview>
  <defs
     id="defs1" />
  <g
     inkscape:label="Lager 1"
     inkscape:groupmode="layer"
     id="layer1">
    <path
       style="fill:#b11071;stroke:#005f00;stroke-width:0.819202;stroke-linejoin:bevel;stroke-opacity:1;fill-opacity:1"
       d="m 2.3874235,17.842701 c -0.3266447,2.221185 1.6985526,2.580493 9.2113815,2.907139 7.512828,0.326644 -1.404573,-10.713947 -0.65329,-14.8296711 0.751283,-4.1157234 8.39477,0.7839472 8.39477,0.7839472 0,0 -8.599903,-10.9598167 -12.281842,-1.9598682 -2.1729186,5.3113731 3.212093,6.7530491 2.614998,9.5183651 -0.5430633,2.515078 0.3248046,4.788674 -7.2860175,3.580088 z"
       id="path1"
       sodipodi:nodetypes="csscssc" />
    <path
       style="fill:#b11071;fill-opacity:1;stroke:#005f00;stroke-width:0.819202;stroke-linejoin:bevel;stroke-opacity:1"
       d="m 23.227403,16.481767 c -0.326645,2.221185 2.589814,4.695719 10.09757,4.268073 4.822611,-0.274699 -1.183026,-9.891057 -0.431743,-14.0067813 0.751283,-4.1157234 8.521369,-1.1466794 8.521369,-1.1466794 0,0 -8.948049,-9.8520801 -12.629987,-0.8521316 -2.172919,5.3113733 3.212092,6.7530493 2.614997,9.5183653 -0.543063,2.515078 -0.561384,3.42774 -8.172206,2.219154 z"
       id="path1-8"
       sodipodi:nodetypes="csscssc" />
  </g>
</svg>
